<svg xmlns="http://www.w3.org/2000/svg" xmlns:xlink="http://www.w3.org/1999/xlink" version="1.1" width="1000" height="1000" viewBox="0 0 1000 1000" xml:space="preserve">
<desc>Created with Fabric.js 3.5.0</desc>
<defs>
</defs>
<rect x="0" y="0" width="100%" height="100%" fill="#ffffff"/>
<g transform="matrix(6.1425 0 0 6.1425 499.9995 500)" id="703078">
<g style="" vector-effect="non-scaling-stroke">
		<g transform="matrix(1 0 0 1 18.372 0.4815)">
<path style="stroke: none; stroke-width: 1; stroke-dasharray: none; stroke-linecap: butt; stroke-dashoffset: 0; stroke-linejoin: miter; stroke-miterlimit: 4; is-custom-font: none; font-file-url: none; fill: rgb(255,255,255); fill-rule: nonzero; opacity: 1;" transform=" translate(-92.372, -12.9815)" d="M 37 6.299 h 5.227 c 0.746 0 1.434 0.155 2.062 0.466 c 0.629 0.311 1.123 0.735 1.484 1.27 s 0.542 1.12 0.542 1.754 c 0 0.672 -0.165 1.254 -0.495 1.746 c -0.33 0.491 -0.762 0.868 -1.297 1.129 v 0.15 c 0.697 0.248 1.25 0.643 1.661 1.185 c 0.41 0.541 0.616 1.191 0.616 1.95 c 0 0.735 -0.196 1.385 -0.588 1.951 a 3.817 3.817 0 0 1 -1.587 1.307 c -0.665 0.305 -1.403 0.457 -2.212 0.457 H 37 V 6.299 z m 5.04 5.45 c 0.548 0 0.986 -0.152 1.316 -0.457 c 0.33 -0.305 0.495 -0.688 0.495 -1.148 c 0 -0.448 -0.159 -0.824 -0.476 -1.13 c -0.318 -0.304 -0.738 -0.457 -1.26 -0.457 H 39.52 v 3.192 h 2.52 z m 0.28 5.619 c 0.61 0 1.086 -0.159 1.428 -0.476 c 0.342 -0.317 0.513 -0.731 0.513 -1.241 c 0 -0.51 -0.174 -0.927 -0.522 -1.251 c -0.349 -0.324 -0.847 -0.485 -1.494 -0.485 H 39.52 v 3.453 h 2.8 z m 12.927 2.595 c -1.307 0 -2.492 -0.308 -3.556 -0.924 a 6.711 6.711 0 0 1 -2.511 -2.53 c -0.61 -1.07 -0.915 -2.246 -0.915 -3.528 c 0 -1.281 0.305 -2.457 0.915 -3.528 a 6.711 6.711 0 0 1 2.51 -2.529 C 52.756 6.308 53.94 6 55.248 6 c 1.306 0 2.492 0.308 3.556 0.924 a 6.711 6.711 0 0 1 2.51 2.53 c 0.61 1.07 0.915 2.246 0.915 3.527 c 0 1.282 -0.305 2.458 -0.915 3.528 a 6.711 6.711 0 0 1 -2.51 2.53 c -1.064 0.616 -2.25 0.924 -3.556 0.924 z m 0 -2.39 a 4.52 4.52 0 0 0 2.258 -0.578 a 4.177 4.177 0 0 0 1.615 -1.624 c 0.392 -0.697 0.588 -1.494 0.588 -2.39 c 0 -0.896 -0.196 -1.692 -0.588 -2.389 a 4.177 4.177 0 0 0 -1.615 -1.624 a 4.52 4.52 0 0 0 -2.258 -0.579 a 4.47 4.47 0 0 0 -2.25 0.579 a 4.195 4.195 0 0 0 -1.605 1.624 c -0.392 0.697 -0.588 1.493 -0.588 2.39 c 0 0.895 0.196 1.692 0.588 2.389 a 4.195 4.195 0 0 0 1.605 1.624 a 4.47 4.47 0 0 0 2.25 0.578 z m 15.353 2.39 c -1.307 0 -2.492 -0.308 -3.556 -0.924 a 6.711 6.711 0 0 1 -2.51 -2.53 c -0.61 -1.07 -0.915 -2.246 -0.915 -3.528 c 0 -1.281 0.305 -2.457 0.914 -3.528 a 6.711 6.711 0 0 1 2.511 -2.529 C 68.108 6.308 69.294 6 70.6 6 c 1.307 0 2.492 0.308 3.556 0.924 a 6.711 6.711 0 0 1 2.51 2.53 c 0.61 1.07 0.915 2.246 0.915 3.527 c 0 1.282 -0.305 2.458 -0.914 3.528 a 6.711 6.711 0 0 1 -2.511 2.53 c -1.064 0.616 -2.25 0.924 -3.556 0.924 z m 0 -2.39 a 4.52 4.52 0 0 0 2.259 -0.578 a 4.177 4.177 0 0 0 1.614 -1.624 c 0.392 -0.697 0.588 -1.494 0.588 -2.39 c 0 -0.896 -0.196 -1.692 -0.588 -2.389 a 4.177 4.177 0 0 0 -1.614 -1.624 a 4.52 4.52 0 0 0 -2.259 -0.579 a 4.47 4.47 0 0 0 -2.25 0.579 a 4.195 4.195 0 0 0 -1.605 1.624 c -0.392 0.697 -0.588 1.493 -0.588 2.39 c 0 0.895 0.196 1.692 0.588 2.389 a 4.195 4.195 0 0 0 1.606 1.624 a 4.47 4.47 0 0 0 2.249 0.578 z M 79.83 6.3 h 2.52 v 5.73 h 0.15 l 4.89 -5.73 h 3.043 v 0.149 L 85.6 11.973 l 5.338 7.542 v 0.149 h -3.08 l -3.994 -5.693 l -1.512 1.773 v 3.92 h -2.52 V 6.299 z M 93.779 6 h 3.248 l 3.546 9.39 h 0.15 L 104.268 6 h 3.267 v 13.365 h -2.501 v -6.589 l 0.15 -2.221 h -0.15 l -3.398 8.81 h -1.96 l -3.416 -8.81 h -0.149 l 0.15 2.221 v 6.59 h -2.483 V 6 z m 20.8 0 h 2.894 l 5.021 13.365 h -2.781 l -1.12 -3.192 h -5.115 l -1.12 3.192 h -2.781 L 114.579 6 z m 3.193 7.859 l -1.176 -3.36 l -0.486 -1.606 h -0.149 l -0.485 1.606 l -1.195 3.36 h 3.49 z M 124.553 6 h 4.872 c 0.871 0 1.646 0.18 2.324 0.541 c 0.678 0.361 1.204 0.862 1.577 1.503 c 0.374 0.64 0.56 1.366 0.56 2.175 c 0 0.858 -0.27 1.62 -0.812 2.286 a 4.617 4.617 0 0 1 -2.044 1.447 l -0.018 0.13 l 3.584 5.134 v 0.15 h -2.894 l -3.453 -5.022 h -1.176 v 5.021 h -2.52 V 6 z m 4.853 6.03 c 0.573 0 1.04 -0.175 1.4 -0.523 c 0.361 -0.349 0.542 -0.79 0.542 -1.326 c 0 -0.51 -0.172 -0.945 -0.514 -1.306 c -0.342 -0.361 -0.806 -0.542 -1.39 -0.542 h -2.371 v 3.696 h 2.333 z m 7.23 -6.03 h 2.52 v 5.73 h 0.15 l 4.89 -5.73 h 3.043 v 0.15 l -4.835 5.525 l 5.34 7.541 v 0.15 h -3.08 l -3.996 -5.694 l -1.512 1.773 v 3.92 h -2.52 V 6 z" stroke-linecap="round"/>
</g>
		<g transform="matrix(1 0 0 1 -61.5 0)">
<circle style="stroke: none; stroke-width: 1; stroke-dasharray: none; stroke-linecap: butt; stroke-dashoffset: 0; stroke-linejoin: miter; stroke-miterlimit: 4; is-custom-font: none; font-file-url: none; fill: rgb(82,103,223); fill-rule: evenodd; opacity: 1;" cx="0" cy="0" r="12.5"/>
</g>
		<g transform="matrix(1 0 0 1 -61.461 0.5)">
<path style="stroke: none; stroke-width: 1; stroke-dasharray: none; stroke-linecap: butt; stroke-dashoffset: 0; stroke-linejoin: miter; stroke-miterlimit: 4; is-custom-font: none; font-file-url: none; fill: rgb(255,255,255); fill-rule: evenodd; opacity: 1;" transform=" translate(-12.539, -13)" d="M 9 9 v 10 l 3.54 -3.44 L 16.078 19 V 9 a 2 2 0 0 0 -2 -2 H 11 a 2 2 0 0 0 -2 2 z" stroke-linecap="round"/>
</g>
</g>
</g>
</svg>